<svg xmlns="http://www.w3.org/2000/svg" viewBox="0 0 1108.52 294.13"><defs><style>.cls-1{fill:#ed6b1d;}</style></defs><g id="FULL_LOGO" data-name="FULL LOGO"><path class="cls-1" d="M807.46,105a38.17,38.17,0,1,0,38.17,38.17A38.17,38.17,0,0,0,807.46,105ZM826.73,163c-2.35,2-5.68,2-7.43,0s-.51-4.46,1.84-6.48,4.93-2.88,6.68-.85S829.08,160.93,826.73,163Z"/><path class="cls-1" d="M877.57,198.32a88.51,88.51,0,0,0,7-10.19,41.1,41.1,0,0,1-4.51-6.25,81.79,81.79,0,0,1-7.49,11.46l-16.21-16.21A59,59,0,1,0,844,190l16.13,16.13a81.54,81.54,0,0,1-116.91-13.44v3.42a5,5,0,0,1-2.68,4.41A88.53,88.53,0,0,0,865.1,211.13l1.83,1.83a8.94,8.94,0,0,0,12.64,0h0a8.94,8.94,0,0,0,0-12.64Zm-70.11-12.13a43,43,0,1,1,43-43A43,43,0,0,1,807.46,186.19Z"/><path class="cls-1" d="M743.21,93.72a81.57,81.57,0,0,1,129.85,0,5,5,0,0,1,5-4.86h.12a88.59,88.59,0,0,0-140,0h.1A5,5,0,0,1,743.21,93.72Z"/><path class="cls-1" d="M49.18,93.84H67v51.44l48.26-51.44h21.88L95,137.83,139,196.14h-21.6l-34.63-46L67,166.47v29.67H49.18Z"/><path class="cls-1" d="M183.22,93.11h16.52l44.64,103H225.54l-10.29-24.7h-48l-10.43,24.7H138.59Zm25.51,62.4-17.54-40.92L173.8,155.51Z"/><path class="cls-1" d="M236,93.84h19.27l24.2,75.85,24.93-76.14h15.07l24.92,76.14,24.2-75.85h18.7l-35.36,103H336.54l-24.93-73.51-24.92,73.51H271.33Z"/><path class="cls-1" d="M390.59,145c0-28.79,22-52.91,53.18-52.91s52.89,23.83,52.89,52.91c0,28.79-22,52.91-53.18,52.91S390.59,174.07,390.59,145ZM478,145c0-19.88-14.35-36.39-34.49-36.39s-34.2,16.22-34.2,36.39c0,19.88,14.35,36.39,34.49,36.39S478,165.16,478,145Z"/><path class="cls-1" d="M508.83,145c0-28.79,22-52.91,53.18-52.91s52.9,23.83,52.9,52.91c0,28.79-22,52.91-53.18,52.91S508.83,174.07,508.83,145Zm87.38,0c0-19.88-14.34-36.39-34.48-36.39s-34.2,16.22-34.2,36.39c0,19.88,14.34,36.39,34.48,36.39S596.21,165.16,596.21,145Z"/><path class="cls-1" d="M624.76,181.23l10.72-12.86c9.71,8.48,19.42,13.3,32,13.3,11,0,18-5.11,18-13.15,0-7.31-4.06-11.25-22.9-15.79C641,147.62,628.82,141.19,628.82,122c0-17.53,14.49-29.66,34.63-29.66,14.78,0,26.52,4.53,36.81,12.86l-9.57,13.59c-9.13-6.87-18.26-10.52-27.53-10.52-10.43,0-16.52,5.4-16.52,12.42,0,7.89,4.64,11.4,24.06,16.08,21.44,5.26,32.6,13,32.6,30.25,0,19.14-14.92,30.54-36.23,30.54A62.19,62.19,0,0,1,624.76,181.23Z"/><path class="cls-1" d="M720.4,93.84h17.82v102.3H720.4Z"/><path class="cls-1" d="M878,152.73V93.84h17.83V152c0,19,9.71,29.23,25.65,29.23s25.5-9.64,25.5-28.5V93.84h17.83v58c0,30.54-17.1,45.89-43.62,45.89S878,182.4,878,152.73Z"/><path class="cls-1" d="M983.41,93.84h75.21v16.07h-57.39v26.6h50.86v16.08h-50.86v27.48h58.11v16.07H983.41Z"/></g></svg>