<svg xmlns="http://www.w3.org/2000/svg" viewBox="0 0 1108.52 294.13"><defs><style>.cls-1{fill:currentColor;}</style></defs><g id="BG"><path class="cls-1" d="M1103.52,5V289.13H5V5H1103.52m5-5H0V294.13H1108.52V0Z"/></g><g id="FULL_LOGO" data-name="FULL LOGO"><path class="cls-1" d="M807.46,105a38.17,38.17,0,1,0,38.17,38.17A38.17,38.17,0,0,0,807.46,105ZM826.73,163c-2.35,2-5.68,2-7.43,0s-.51-4.46,1.84-6.48,4.93-2.88,6.68-.85S829.08,160.93,826.73,163Z"/><path class="cls-1" d="M877.57,198.32a88.51,88.51,0,0,0,7-10.19,41.1,41.1,0,0,1-4.51-6.25,81.79,81.79,0,0,1-7.49,11.46l-16.21-16.21A59,59,0,1,0,844,190l16.13,16.13a81.54,81.54,0,0,1-116.91-13.44v3.42a5,5,0,0,1-2.68,4.41A88.53,88.53,0,0,0,865.1,211.13l1.83,1.83a8.94,8.94,0,0,0,12.64,0h0a8.94,8.94,0,0,0,0-12.64Zm-70.11-12.13a43,43,0,1,1,43-43A43,43,0,0,1,807.46,186.19Z"/><path class="cls-1" d="M743.21,93.72a81.57,81.57,0,0,1,129.85,0,5,5,0,0,1,5-4.86h.12a88.59,88.59,0,0,0-140,0h.1A5,5,0,0,1,743.21,93.72Z"/><circle class="cls-1" cx="142.59" cy="223.3" r="3.71"/><circle class="cls-1" cx="631.59" cy="223.3" r="3.71"/><path class="cls-1" d="M49.18,93.84H67v51.44l48.26-51.44h21.88L95,137.83,139,196.14h-21.6l-34.63-46L67,166.47v29.67H49.18Z"/><path class="cls-1" d="M183.22,93.11h16.52l44.64,103H225.54l-10.29-24.7h-48l-10.43,24.7H138.59Zm25.51,62.4-17.54-40.92L173.8,155.51Z"/><path class="cls-1" d="M236,93.84h19.27l24.2,75.85,24.93-76.14h15.07l24.92,76.14,24.2-75.85h18.7l-35.36,103H336.54l-24.93-73.51-24.92,73.51H271.33Z"/><path class="cls-1" d="M390.59,145c0-28.79,22-52.91,53.18-52.91s52.89,23.83,52.89,52.91c0,28.79-22,52.91-53.18,52.91S390.59,174.07,390.59,145ZM478,145c0-19.88-14.35-36.39-34.49-36.39s-34.2,16.22-34.2,36.39c0,19.88,14.35,36.39,34.49,36.39S478,165.16,478,145Z"/><path class="cls-1" d="M508.83,145c0-28.79,22-52.91,53.18-52.91s52.9,23.83,52.9,52.91c0,28.79-22,52.91-53.18,52.91S508.83,174.07,508.83,145Zm87.38,0c0-19.88-14.34-36.39-34.48-36.39s-34.2,16.22-34.2,36.39c0,19.88,14.34,36.39,34.48,36.39S596.21,165.16,596.21,145Z"/><path class="cls-1" d="M624.76,181.23l10.72-12.86c9.71,8.48,19.42,13.3,32,13.3,11,0,18-5.11,18-13.15,0-7.31-4.06-11.25-22.9-15.79C641,147.62,628.82,141.19,628.82,122c0-17.53,14.49-29.66,34.63-29.66,14.78,0,26.52,4.53,36.81,12.86l-9.57,13.59c-9.13-6.87-18.26-10.52-27.53-10.52-10.43,0-16.52,5.4-16.52,12.42,0,7.89,4.64,11.4,24.06,16.08,21.44,5.26,32.6,13,32.6,30.25,0,19.14-14.92,30.54-36.23,30.54A62.19,62.19,0,0,1,624.76,181.23Z"/><path class="cls-1" d="M720.4,93.84h17.82v102.3H720.4Z"/><path class="cls-1" d="M878,152.73V93.84h17.83V152c0,19,9.71,29.23,25.65,29.23s25.5-9.64,25.5-28.5V93.84h17.83v58c0,30.54-17.1,45.89-43.62,45.89S878,182.4,878,152.73Z"/><path class="cls-1" d="M983.41,93.84h75.21v16.07h-57.39v26.6h50.86v16.08h-50.86v27.48h58.11v16.07H983.41Z"/><path class="cls-1" d="M164.56,213.54h1.59l7.48,10.55,7.49-10.55h1.59V231.9h-1.77V216.6l-7.38,10.16-7.3-10.16v15.3h-1.7Z"/><path class="cls-1" d="M189.4,213.54h1.77v16l12.45-16h1.77V231.9h-1.77v-16l-12.45,16H189.4Z"/><path class="cls-1" d="M212.08,213.54h1.77v4.11c1.58-2.41,3.92-4.54,7.56-4.54,4.42,0,8.92,3.57,8.92,9.61s-4.5,9.61-8.92,9.61a8.8,8.8,0,0,1-7.56-4.39v9.72h-1.77Zm16.34,9.18c0-4.82-3.34-7.91-7.19-7.91a7.93,7.93,0,0,0,0,15.83C225.22,230.64,228.42,227.73,228.42,222.72Z"/><path class="cls-1" d="M245.38,222.72a9.47,9.47,0,0,1,9.36-9.61,9.31,9.31,0,0,1,7.31,3.42l-1.23,1.26c-1.58-1.62-3.38-3-6.12-3a8,8,0,0,0,.15,15.91,8.12,8.12,0,0,0,6.08-3.13l1.3,1.15a9.42,9.42,0,0,1-16.85-6Z"/><path class="cls-1" d="M267.2,213.54H269v11.78l11.38-11.78h2.34l-8,8.14,8.28,10.22H280.7l-7.27-9-4.47,4.5v4.46H267.2Z"/><path class="cls-1" d="M287.21,213.54h8.39c3.56,0,5.94,1.77,5.94,4.58a4.37,4.37,0,0,1-3.1,4.21c2.2.57,4.14,2,4.14,4.57,0,3.06-2.62,5-6.58,5h-8.79Zm8.14,8.21c2.55,0,4.39-1.22,4.39-3.53,0-1.83-1.51-3.09-4.28-3.09H289v6.62Zm.43,8.57c3.06,0,5-1.41,5-3.67s-1.87-3.42-5.4-3.42H289v7.09Z"/><path class="cls-1" d="M306.83,222.72a9.44,9.44,0,1,1,9.4,9.61A9.49,9.49,0,0,1,306.83,222.72Zm17,0a7.54,7.54,0,1,0-7.49,8A7.77,7.77,0,0,0,323.79,222.72Z"/><path class="cls-1" d="M328.69,229.53l1.08-1.44a9.38,9.38,0,0,0,6.33,2.52c2.52,0,5-1.59,5-3.78s-1.9-3.53-5.11-3.53h-2.52v-1.58H336c2.59,0,4.57-1.34,4.57-3.6,0-2-1.94-3.24-4.43-3.24a9.47,9.47,0,0,0-5.72,1.87l-1-1.41a11.49,11.49,0,0,1,6.8-2.12c3.85,0,6.33,2,6.33,4.9a4.41,4.41,0,0,1-3,4.24,4.51,4.51,0,0,1,3.42,4.5c0,2.88-2.73,5.4-6.84,5.4A11.62,11.62,0,0,1,328.69,229.53Z"/><path class="cls-1" d="M348.41,213.54h1.77v7.06h5.47c3.81,0,7,1.62,7,5.4,0,3.56-2.67,5.9-6.7,5.9h-7.56Zm7.27,16.78c3.1,0,5.08-1.55,5.08-4.25,0-2.48-2-3.89-5.22-3.89h-5.36v8.14Z"/><path class="cls-1" d="M389.42,230.25a7,7,0,0,1-4.86,2.08c-4.43,0-7.49-3.63-7.49-9.68s3.06-9.54,7.49-9.54a6.69,6.69,0,0,1,4.86,2.16v-8.56h1.76v8.56a6.55,6.55,0,0,1,4.86-2.16c4.43,0,7.49,3.57,7.49,9.61s-3.06,9.61-7.49,9.61a6.49,6.49,0,0,1-4.86-2.08v7.41h-1.76Zm0-1.8V217a6.13,6.13,0,0,0-4.68-2.19c-3.86,0-5.76,3.09-5.76,8s1.76,7.84,5.76,7.84A6.13,6.13,0,0,0,389.42,228.45Zm12.2-5.73c0-4.82-1.91-7.91-5.76-7.91a6.12,6.12,0,0,0-4.68,2.19v11.45a6.12,6.12,0,0,0,4.68,2.19C399.85,230.64,401.62,227.73,401.62,222.72Z"/><path class="cls-1" d="M409,213.54h1.76v16l12.45-16H425V231.9h-1.77v-16l-12.45,16H409Z"/><path class="cls-1" d="M428.51,231.9l.33-1.62a7.6,7.6,0,0,0,1.4.26c2.45,0,4.18-1.09,4.25-16v-1H447V231.9h-1.77V215.13h-9v.5c0,15.19-2.27,16.56-5.65,16.56A8.79,8.79,0,0,1,428.51,231.9Z"/><path class="cls-1" d="M453.68,213.54h1.76v7.06h5.47c3.82,0,7,1.62,7,5.4,0,3.56-2.66,5.9-6.69,5.9h-7.56ZM461,230.32c3.09,0,5.07-1.55,5.07-4.25,0-2.48-2-3.89-5.22-3.89h-5.36v8.14Z"/><path class="cls-1" d="M475.17,215.13h-6.88v-1.59h15.52v1.59h-6.88V231.9h-1.76Z"/><path class="cls-1" d="M488.24,213.54H490v4.11c1.58-2.41,3.92-4.54,7.56-4.54,4.43,0,8.93,3.57,8.93,9.61s-4.5,9.61-8.93,9.61a8.82,8.82,0,0,1-7.56-4.39v9.72h-1.76Zm16.34,9.18c0-4.82-3.35-7.91-7.2-7.91a7.93,7.93,0,0,0,0,15.83C501.37,230.64,504.58,227.73,504.58,222.72Z"/><path class="cls-1" d="M522.79,213.54h1.77v11.78l11.37-11.78h2.34l-8,8.14,8.28,10.22h-2.24l-7.27-9-4.46,4.5v4.46h-1.77Z"/><path class="cls-1" d="M540.83,222.72a9.43,9.43,0,1,1,9.4,9.61A9.49,9.49,0,0,1,540.83,222.72Zm16.95,0a7.53,7.53,0,1,0-7.48,8A7.76,7.76,0,0,0,557.78,222.72Z"/><path class="cls-1" d="M576.29,230.25a7,7,0,0,1-4.86,2.08c-4.43,0-7.49-3.63-7.49-9.68s3.06-9.54,7.49-9.54a6.69,6.69,0,0,1,4.86,2.16v-8.56h1.76v8.56a6.57,6.57,0,0,1,4.86-2.16c4.43,0,7.49,3.57,7.49,9.61s-3.06,9.61-7.49,9.61a6.49,6.49,0,0,1-4.86-2.08v7.41h-1.76Zm0-1.8V217a6.12,6.12,0,0,0-4.68-2.19c-3.85,0-5.76,3.09-5.76,8s1.76,7.84,5.76,7.84A6.12,6.12,0,0,0,576.29,228.45Zm12.2-5.73c0-4.82-1.91-7.91-5.76-7.91a6.12,6.12,0,0,0-4.68,2.19v11.45a6.12,6.12,0,0,0,4.68,2.19C586.73,230.64,588.49,227.73,588.49,222.72Z"/><path class="cls-1" d="M594.65,222.69c0-5.33,3.74-9.58,8.71-9.58,5.15,0,8.42,4.18,8.42,9.61a5.39,5.39,0,0,1,0,.72H596.52c.33,4.58,3.6,7.24,7.2,7.24a8.23,8.23,0,0,0,6.3-2.88l1.22,1.08a9.65,9.65,0,0,1-7.59,3.45C598.83,232.33,594.65,228.48,594.65,222.69Zm15.23-.83c-.25-3.71-2.38-7.13-6.59-7.13-3.63,0-6.44,3.06-6.77,7.13Z"/></g></svg>