<svg xmlns="http://www.w3.org/2000/svg" viewBox="0 0 512 512"><defs><style>.cls-1{fill:currentColor;}</style></defs><g id="SQ_LOGO" data-name="SQ LOGO"><path class="cls-1" d="M250.88,181.45A74.55,74.55,0,1,0,325.43,256,74.55,74.55,0,0,0,250.88,181.45Zm37.63,113.11c-4.59,4-11.09,3.94-14.5,0s-1-8.7,3.58-12.66,9.63-5.62,13.05-1.65S293.1,290.61,288.51,294.56Z"/><path class="cls-1" d="M387.09,362.92a172.4,172.4,0,0,0,37-106.92c0-95.52-77.71-173.23-173.23-173.23S77.64,160.48,77.64,256s77.72,173.23,173.24,173.23a172.48,172.48,0,0,0,112-41.17l4.17,4.17a17.47,17.47,0,0,0,24.69,0h0a17.47,17.47,0,0,0,0-24.69ZM250.88,415.56A159.65,159.65,0,1,1,377.37,353.2l-30.95-30.95a115.23,115.23,0,1,0-24.18,25.19l31,31A158.88,158.88,0,0,1,250.88,415.56ZM334.82,256a83.95,83.95,0,1,1-83.94-83.95A83.95,83.95,0,0,1,334.82,256Z"/><path class="cls-1" d="M27.81,186l2.58-7.5,21.45,7.38L37.37,158.24l3.16-9.2,12.25,24,30.69-10.17L80.35,172l-24.21,8,4.54,9,12.38,4.25-2.58,7.5Z"/><path class="cls-1" d="M61.35,118.59l4.13-6.08,48.75,9-4.7,6.94-11.59-2.32L86,143.84l6.41,9.95-4.55,6.73Zm29.15,6L71.19,121l10.6,16.53Z"/><path class="cls-1" d="M91.24,84l6.81-5.21,28.88,20L115.32,65.36l5.32-4.07,29.22,19.92-11.79-33.1,6.6-5.06,15.14,45.64-5.43,4.16-28.51-19,10.91,32.48-5.43,4.15Z"/><path class="cls-1" d="M172.8,59.43c-4-12.06,2-25.23,15.14-29.58s25.64,2.58,29.66,14.76-2,25.23-15.13,29.59S176.83,71.61,172.8,59.43Zm36.91-12.21C207,38.9,198.61,34,190.1,36.8s-12.19,11.57-9.4,20,11.1,13.23,19.61,10.42S212.5,55.67,209.71,47.22Z"/><path class="cls-1" d="M232.71,45.34c-.36-12.69,9.13-23.6,23-24S279.51,31.19,279.87,44s-9.14,23.6-23,24S233.07,58.16,232.71,45.34Zm38.84-1.09c-.24-8.76-6.82-15.86-15.78-15.61s-15,7.58-14.75,16.47S247.85,61,256.8,60.72,271.8,53.14,271.55,44.25Z"/><path class="cls-1" d="M289.43,64.58l5.95-4.43c3.34,4.63,7.06,7.7,12.51,9,4.77,1.13,8.3-.36,9.12-3.81.74-3.13-.62-5.24-8.32-9.11-8.83-4.4-13.44-8.41-11.5-16.63,1.77-7.52,9.28-11.25,18-9.19a25,25,0,0,1,14.63,9.28l-5.52,4.86c-3.26-3.88-6.84-6.39-10.85-7.33-4.52-1.07-7.7.63-8.42,3.64-.79,3.39.86,5.37,8.79,9.36,8.75,4.45,12.8,8.92,11.05,16.32-1.94,8.22-9.56,11.58-18.78,9.41A27.82,27.82,0,0,1,289.43,64.58Z"/><path class="cls-1" d="M351.06,44.72l7.26,3.18L340.26,89.24,333,86.06Z"/><path class="cls-1" d="M383.08,114.5A23.31,23.31,0,0,1,369.45,110c-11.26-8.09-13-22.26-5.5-32.68a23.11,23.11,0,0,1,32.82-5.15c11.26,8.08,13,22.25,5.5,32.67a23,23,0,0,1-11.8,8.59L392.1,120l-7.44,1.63Zm-1.72-7.66L378.92,97l7.51-1.75,2.2,10.31a15.49,15.49,0,0,0,6.89-5.61c5.11-7.12,4.18-16.76-3.1-22s-16.53-3.06-21.72,4.16-4.18,16.76,3.1,22A14.4,14.4,0,0,0,381.36,106.84Z"/><path class="cls-1" d="M408.63,120.65,429,104.49l4.93,6.2-20.08,16c-6.56,5.21-7.41,11.4-3,17s10.39,6.23,16.9,1.06l20.34-16.16,4.93,6.21-20,15.92C422.41,159,412.38,157.28,405,148S398.39,128.79,408.63,120.65Z"/><path class="cls-1" d="M462.46,156.56l13.65,30.54L469.64,190l-10.42-23.3-10.71,4.79,9.23,20.65-6.47,2.9L442,174.37,431,179.32l10.54,23.59-6.47,2.9L421.27,175Z"/><path class="cls-1" d="M54,312.52l.62,1.79-9,12.55,14.82,4.35.62,1.78-20.72,7.15-.69-2,17.27-6-14.33-4.37,8.61-12.2-17.27,5.95-.66-1.9Z"/><path class="cls-1" d="M64.21,340.21l1,1.88-17,8.68,23.79,4.57,1,1.87-19.53,10-1-1.87,17-8.68L45.64,352l-1-1.88Z"/><path class="cls-1" d="M76.91,364.06l1.2,1.73-4,2.79c3.45-.09,7.12.76,9.59,4.33,3,4.34,2.58,11.18-3.35,15.29s-12.49,2.13-15.5-2.22c-2.5-3.6-2.07-7.35-.83-10.4l-9.54,6.61-1.2-1.73ZM79,386.33c4.73-3.28,5.49-8.67,2.87-12.45a9.46,9.46,0,0,0-15.53,10.77C69.07,388.57,74.11,389.73,79,386.33Z"/><path class="cls-1" d="M93.88,403.91a11.3,11.3,0,0,1,16-.45,11.08,11.08,0,0,1,3.42,9l-2.1.06c0-2.7-.38-5.4-2.73-7.67-3.48-3.38-9.31-3.11-13,.65a9.22,9.22,0,0,0-.14,13.1c2.22,2.15,5.06,2.56,7.82,2.37l.15,2.06a11.24,11.24,0,0,1-9.47-19.12Z"/><path class="cls-1" d="M120.62,413.89l1.67,1.28-8.52,11.16,19.31-2.93,2.22,1.7L121.79,427l.46,15.7-2.12-1.62-.41-13.77-7.49,1L109,432.58l-1.68-1.27Z"/><path class="cls-1" d="M140,428.08l8.62,5.08c3.67,2.16,5,5.42,3.34,8.31-1.5,2.55-3.85,2.72-5.74,2.45,1.91,1.93,3.06,4.55,1.49,7.21-1.85,3.15-5.73,3.56-9.81,1.16l-9-5.33Zm-1.36,22.45c3.15,1.85,6,1.56,7.34-.77s.14-4.65-3.49-6.79l-6.55-3.86-4.3,7.29Zm4.75-9.08c2.63,1.55,5.26,1.41,6.65-1,1.12-1.89.32-4.1-2.53-5.78l-6.66-3.93-4,6.81Z"/><path class="cls-1" d="M156,449.85a11.26,11.26,0,1,1,5.81,14.95A11.21,11.21,0,0,1,156,449.85Zm18.62,7.95a9,9,0,1,0-16.52-7.06A9.18,9.18,0,0,0,162.64,463C167.1,464.93,172.53,462.62,174.59,457.8Z"/><path class="cls-1" d="M179.09,468l1.73-1.29a11.17,11.17,0,0,0,6.4,5c2.88.85,6.26-.13,7-2.64s-1-4.68-4.66-5.76l-2.88-.85.53-1.82,2.93.86c3,.88,5.68,0,6.45-2.57.67-2.27-1.13-4.37-4-5.21a11.3,11.3,0,0,0-7.18.21l-.72-2a13.7,13.7,0,0,1,8.5-.13c4.41,1.3,6.58,4.45,5.6,7.75a5.28,5.28,0,0,1-4.81,3.86c2.1,1.52,3.21,3.55,2.39,6.31-1,3.29-4.95,5.25-9.65,3.87A14,14,0,0,1,179.09,468Z"/><path class="cls-1" d="M207.38,456l2.07.37L208,464.7l6.43,1.15c4.48.81,7.91,3.38,7.11,7.82-.75,4.19-4.37,6.38-9.11,5.53l-8.88-1.58Zm5,21.24c3.64.65,6.29-.75,6.86-3.92.52-2.92-1.56-5-5.32-5.67l-6.3-1.12-1.71,9.56Z"/><path class="cls-1" d="M257.13,480.41a8.33,8.33,0,0,1-5.72,2.67c-5.28.17-9.07-4.05-9.3-11.27s3.29-11.5,8.57-11.66a7.94,7.94,0,0,1,5.88,2.39l-.32-10.22,2.11-.07.32,10.22a7.87,7.87,0,0,1,5.72-2.76c5.28-.16,9.06,4,9.29,11.19s-3.28,11.58-8.57,11.75a7.73,7.73,0,0,1-5.87-2.31l.28,8.85-2.11.07Zm-.07-2.15-.43-13.66a7.28,7.28,0,0,0-5.67-2.44c-4.59.14-6.75,3.91-6.57,9.75s2.4,9.3,7.17,9.15A7.29,7.29,0,0,0,257.06,478.26ZM271.41,471c-.19-5.76-2.58-9.38-7.17-9.23a7.31,7.31,0,0,0-5.51,2.79l.44,13.66a7.28,7.28,0,0,0,5.66,2.45C269.6,480.49,271.6,476.94,271.41,471Z"/><path class="cls-1" d="M279.61,458.78l2.07-.39,3.53,18.79,11.08-21.53,2.07-.39,4.05,21.53-2.07.39-3.53-18.79-11.08,21.54-2.07.39Z"/><path class="cls-1" d="M309.25,475.26l-.23-2a8.38,8.38,0,0,0,1.68-.24c2.78-.91,4.34-2.78-1.14-19.75l-.36-1.1,14.17-4.65,6.83,20.82-2,.66L322,450l-10.26,3.37.19.57c5.62,17.24,3.6,19.63-.24,20.89A11.52,11.52,0,0,1,309.25,475.26Z"/><path class="cls-1" d="M330.84,444.48l1.91-.89,3.57,7.63,5.91-2.77c4.13-1.93,8.41-1.81,10.33,2.28,1.8,3.86.11,7.73-4.25,9.78l-8.18,3.82Zm16.35,14.46c3.35-1.57,4.71-4.24,3.34-7.16-1.26-2.69-4.15-3.19-7.61-1.56l-5.8,2.71,4.12,8.8Z"/><path class="cls-1" d="M355,434.33l-7.06,4.18-1-1.62,15.94-9.44,1,1.63-7.07,4.18L367,450.5l-1.81,1.07Z"/><path class="cls-1" d="M367.34,424.51l1.67-1.29,3,3.89c-.26-3.44.41-7.15,3.86-9.8,4.19-3.22,11-3.12,15.44,2.61s2.73,12.37-1.46,15.59c-3.48,2.67-7.25,2.42-10.35,1.34l7.07,9.2-1.67,1.28Zm22.14-3.2c-3.51-4.57-8.93-5.06-12.57-2.26a9.47,9.47,0,0,0,11.52,15C392.21,431.13,393.12,426,389.48,421.31Z"/><path class="cls-1" d="M399.09,397.22l1.39-1.58,10.54,9.3-1.56-19.48,1.85-2.1.95,13.61,15.69.67-1.77,2-13.76-.57.5,7.55,4,3.52-1.4,1.58Z"/><path class="cls-1" d="M422.31,387.11a11.26,11.26,0,1,1,15.81-2.75A11.33,11.33,0,0,1,422.31,387.11Zm11.46-16.69a9,9,0,1,0,2.77,12.75C439.29,379.16,438.09,373.39,433.77,370.42Z"/><path class="cls-1" d="M453.1,353.63a8.42,8.42,0,0,1-.25,6.31c-2.28,4.77-7.77,6.19-14.29,3.08s-8.7-8.2-6.42-13a8,8,0,0,1,4.83-4.12l-9.23-4.41.9-1.9,9.23,4.41a7.84,7.84,0,0,1,.18-6.35c2.27-4.77,7.69-6.23,14.2-3.12s8.78,8.24,6.5,13a7.71,7.71,0,0,1-4.75,4.16l8,3.82-.9,1.89Zm-1.94-.93-12.33-5.89a7.33,7.33,0,0,0-4.78,3.92c-2,4.15.38,7.79,5.65,10.31s9.36,2.14,11.42-2.16A7.33,7.33,0,0,0,451.16,352.7Zm.11-16.09c-5.2-2.48-9.51-2-11.49,2.13a7.31,7.31,0,0,0,0,6.17l12.33,5.89a7.27,7.27,0,0,0,4.78-3.91C458.89,342.59,456.66,339.19,451.27,336.61Z"/><path class="cls-1" d="M454.18,328.29c-6.08-1.85-9.63-7.6-7.91-13.27,1.78-5.88,7.69-8.17,13.9-6.29a5,5,0,0,1,.8.29l-5.27,17.39c5.33,1.22,9.51-1.6,10.76-5.71a9.86,9.86,0,0,0-1.11-8.2l1.66-1a11.5,11.5,0,0,1,1.31,9.87C466.65,326.86,460.8,330.3,454.18,328.29Zm4.34-17.68c-4.32-1-9,.24-10.43,5.05-1.26,4.15,1.26,8.42,5.8,10.2Z"/><circle class="cls-1" cx="39.48" cy="254.28" r="7.25"/><circle class="cls-1" cx="472.52" cy="257.98" r="7.25"/></g></svg>